<svg width="24" height="24" viewBox="0 0 24 24" fill="none" xmlns="http://www.w3.org/2000/svg">
<path d="M21.2001 22C21.4801 22 21.6202 22 21.7271 21.9455C21.8212 21.8976 21.8977 21.8211 21.9456 21.727C22.0001 21.62 22.0001 21.48 22.0001 21.2V10.8C22.0001 10.52 22.0001 10.38 21.9456 10.273C21.8977 10.1789 21.8212 10.1024 21.7271 10.0545C21.6202 10 21.4801 10 21.2001 10L18.8001 10C18.5201 10 18.3801 10 18.2731 10.0545C18.179 10.1024 18.1026 10.1789 18.0546 10.273C18.0001 10.38 18.0001 10.52 18.0001 10.8V13.2C18.0001 13.48 18.0001 13.62 17.9456 13.727C17.8977 13.8211 17.8212 13.8976 17.7271 13.9455C17.6202 14 17.4801 14 17.2001 14H14.8001C14.5201 14 14.3801 14 14.2731 14.0545C14.179 14.1024 14.1026 14.1789 14.0546 14.273C14.0001 14.38 14.0001 14.52 14.0001 14.8V17.2C14.0001 17.48 14.0001 17.62 13.9456 17.727C13.8977 17.8211 13.8212 17.8976 13.7271 17.9455C13.6202 18 13.4801 18 13.2001 18H10.8001C10.5201 18 10.3801 18 10.2731 18.0545C10.179 18.1024 10.1026 18.1789 10.0546 18.273C10.0001 18.38 10.0001 18.52 10.0001 18.8V21.2C10.0001 21.48 10.0001 21.62 10.0546 21.727C10.1026 21.8211 10.179 21.8976 10.2731 21.9455C10.3801 22 10.5201 22 10.8001 22L21.2001 22Z" stroke="black" stroke-width="2" stroke-linecap="round" stroke-linejoin="round"/>
<path d="M10.0001 6.8C10.0001 6.51997 10.0001 6.37996 10.0546 6.273C10.1026 6.17892 10.179 6.10243 10.2731 6.0545C10.3801 6 10.5201 6 10.8001 6H13.2001C13.4801 6 13.6202 6 13.7271 6.0545C13.8212 6.10243 13.8977 6.17892 13.9456 6.273C14.0001 6.37996 14.0001 6.51997 14.0001 6.8V9.2C14.0001 9.48003 14.0001 9.62004 13.9456 9.727C13.8977 9.82108 13.8212 9.89757 13.7271 9.9455C13.6202 10 13.4801 10 13.2001 10H10.8001C10.5201 10 10.3801 10 10.2731 9.9455C10.179 9.89757 10.1026 9.82108 10.0546 9.727C10.0001 9.62004 10.0001 9.48003 10.0001 9.2V6.8Z" stroke="black" stroke-width="2" stroke-linecap="round" stroke-linejoin="round"/>
<path d="M3.00012 12.8C3.00012 12.52 3.00012 12.38 3.05462 12.273C3.10256 12.1789 3.17905 12.1024 3.27313 12.0545C3.38008 12 3.5201 12 3.80012 12H6.20012C6.48015 12 6.62016 12 6.72712 12.0545C6.8212 12.1024 6.89769 12.1789 6.94563 12.273C7.00012 12.38 7.00012 12.52 7.00012 12.8V15.2C7.00012 15.48 7.00012 15.62 6.94563 15.727C6.89769 15.8211 6.8212 15.8976 6.72712 15.9455C6.62016 16 6.48015 16 6.20012 16H3.80012C3.5201 16 3.38008 16 3.27313 15.9455C3.17905 15.8976 3.10256 15.8211 3.05462 15.727C3.00012 15.62 3.00012 15.48 3.00012 15.2V12.8Z" stroke="black" stroke-width="2" stroke-linecap="round" stroke-linejoin="round"/>
<path d="M2.00012 2.8C2.00012 2.51997 2.00012 2.37996 2.05462 2.273C2.10256 2.17892 2.17905 2.10243 2.27313 2.0545C2.38008 2 2.5201 2 2.80012 2H5.20012C5.48015 2 5.62016 2 5.72712 2.0545C5.8212 2.10243 5.89769 2.17892 5.94563 2.273C6.00012 2.37996 6.00012 2.51997 6.00012 2.8V5.2C6.00012 5.48003 6.00012 5.62004 5.94563 5.727C5.89769 5.82108 5.8212 5.89757 5.72712 5.9455C5.62016 6 5.48015 6 5.20012 6H2.80012C2.5201 6 2.38008 6 2.27313 5.9455C2.17905 5.89757 2.10256 5.82108 2.05462 5.727C2.00012 5.62004 2.00012 5.48003 2.00012 5.2V2.8Z" stroke="black" stroke-width="2" stroke-linecap="round" stroke-linejoin="round"/>
</svg>
