<svg width="24" height="24" viewBox="0 0 24 24" fill="none" xmlns="http://www.w3.org/2000/svg">
<path d="M7.00012 10V8C7.00012 5.23858 9.2387 3 12.0001 3C14.0504 3 15.8125 4.2341 16.5841 6M12.0001 14.5V16.5M8.80012 21H15.2001C16.8803 21 17.7204 21 18.3621 20.673C18.9266 20.3854 19.3855 19.9265 19.6731 19.362C20.0001 18.7202 20.0001 17.8802 20.0001 16.2V14.8C20.0001 13.1198 20.0001 12.2798 19.6731 11.638C19.3855 11.0735 18.9266 10.6146 18.3621 10.327C17.7204 10 16.8803 10 15.2001 10H8.80012C7.11996 10 6.27989 10 5.63815 10.327C5.07366 10.6146 4.61472 11.0735 4.3271 11.638C4.00012 12.2798 4.00012 13.1198 4.00012 14.8V16.2C4.00012 17.8802 4.00012 18.7202 4.3271 19.362C4.61472 19.9265 5.07366 20.3854 5.63815 20.673C6.27989 21 7.11996 21 8.80012 21Z" stroke="black" stroke-width="2" stroke-linecap="round" stroke-linejoin="round"/>
</svg>
