<svg width="24" height="24" viewBox="0 0 24 24" fill="none" xmlns="http://www.w3.org/2000/svg">
<path d="M5.99982 6L7.99982 4M7.99982 4L5.99982 2M7.99982 4H5.99982C3.79068 4 1.99982 5.79086 1.99982 8M17.9998 18L15.9998 20M15.9998 20L17.9998 22M15.9998 20H17.9998C20.209 20 21.9998 18.2091 21.9998 16M13.417 13.4172C14.1992 13.7908 15.0751 14 15.9998 14C19.3135 14 21.9998 11.3137 21.9998 8C21.9998 4.68629 19.3135 2 15.9998 2C12.6861 2 9.99982 4.68629 9.99982 8C9.99982 8.92472 10.209 9.80057 10.5826 10.5828M13.9998 16C13.9998 19.3137 11.3135 22 7.99982 22C4.68611 22 1.99982 19.3137 1.99982 16C1.99982 12.6863 4.68611 10 7.99982 10C11.3135 10 13.9998 12.6863 13.9998 16Z" stroke="black" stroke-width="2" stroke-linecap="round" stroke-linejoin="round"/>
</svg>
